<svg width="320" height="242" viewBox="0 0 320 242" fill="none" xmlns="http://www.w3.org/2000/svg">
<path d="M149.516 91.1378L149.483 91.1017C146.814 88.4329 137.102 79.7411 131.441 73.7542C127.871 69.9673 125.17 64.9542 124.076 60.1935C123.497 57.6689 123.401 55.7574 123.401 52.8361C123.401 41.1148 127.711 31.5936 133.017 31.5936C135.108 31.5936 136.876 32.6034 138.42 35.0198C138.484 35.1641 138.581 35.3083 138.677 35.4526C138.742 35.5608 138.806 35.669 138.87 35.7772C138.999 35.9575 139.192 36.1738 139.385 36.4263L139.417 36.4624C143.566 41.0427 147.522 51.8624 148.101 53.4132C148.101 53.4493 148.133 53.5214 148.165 53.5574C148.165 53.5935 148.197 53.6296 148.197 53.6296C148.197 53.6296 148.486 54.3509 148.583 54.964V55.0001V55.0361C148.647 55.2886 148.872 55.505 149.13 55.505C149.13 55.505 149.773 55.6132 150.802 53.882C150.995 53.5935 151.124 53.2329 151.124 52.8722C151.124 52.6919 151.091 52.5476 151.059 52.4034C149.001 44.6132 149.451 39.7083 149.548 38.7706C149.998 38.9509 150.448 38.987 150.866 38.8066C152.667 38.1574 153.246 34.551 152.153 30.728C151.799 29.4657 151.284 28.3477 150.738 27.41C146.525 18.8624 140.607 13.9575 133.757 13.9575C121.085 13.9575 110.826 32.2788 110.826 54.8919C110.826 68.4165 116.551 80.9312 123.208 88.6132C77.2503 60.5542 30.1025 94.7804 30.1025 94.7804C30.1025 94.7804 25.7286 95.682 16.1769 92.7607C9.16583 90.6329 2.25126 85.6558 2.25126 85.6558C13.8291 107.115 34.798 118.692 34.798 118.692C70.0462 123.633 96.9005 124.751 116.197 124.318C143.083 123.741 155.272 120.171 155.369 120.171C156.559 117.105 157.234 113.715 157.234 110.144C157.202 102.571 154.243 95.7542 149.516 91.1378Z" fill="#FAC6D1"/>
<path d="M303.276 92.3999C293.692 95.3212 289.351 94.4196 289.351 94.4196C289.351 94.4196 242.203 60.1573 196.245 88.2523C202.903 80.5704 208.627 68.0917 208.627 54.531C208.627 31.918 198.368 13.5967 185.696 13.5967C178.814 13.5967 172.896 18.5016 168.716 27.0491C168.137 27.9868 167.654 29.1049 167.301 30.3672C166.207 34.1901 166.786 37.7966 168.587 38.4458C169.005 38.59 169.455 38.554 169.906 38.4097C170.034 39.3114 170.484 44.2523 168.394 52.0425C168.362 52.1868 168.33 52.3671 168.33 52.5114C168.33 52.9081 168.458 53.2327 168.651 53.5212C169.68 55.2523 170.324 55.1441 170.324 55.1441C170.581 55.1441 170.806 54.9638 170.87 54.6753V54.6392V54.6032C170.967 53.9901 171.256 53.2687 171.256 53.2687C171.256 53.2687 171.256 53.2327 171.288 53.1966C171.321 53.1605 171.321 53.0884 171.353 53.0524C171.932 51.4655 175.887 40.6819 180.036 36.1015L180.068 36.0655C180.293 35.8131 180.454 35.5967 180.583 35.4164C180.647 35.3082 180.712 35.2 180.776 35.0918C180.872 34.9475 180.937 34.8032 181.033 34.659C182.577 32.2426 184.346 31.2327 186.436 31.2327C191.743 31.2327 196.052 40.754 196.052 52.4753C196.052 55.3966 195.956 57.3442 195.377 59.8327C194.283 64.5933 191.614 69.6064 188.012 73.3933C182.352 79.3802 172.607 88.036 169.97 90.7409C169.938 90.7409 169.938 90.7769 169.938 90.7769C165.21 95.3933 162.219 102.174 162.219 109.747C162.219 113.318 162.894 116.708 164.084 119.774C164.181 119.81 176.37 123.344 203.256 123.921C222.553 124.354 249.407 123.272 284.72 118.259C284.72 118.259 305.688 106.682 317.266 85.2228C317.202 85.295 310.287 90.272 303.276 92.3999Z" fill="#FAC6D1"/>
<path d="M83.2322 39.492C68.599 18.1772 50.203 4.11159 34.3477 0.324707C33.9618 8.00667 35.0874 16.6985 37.6281 25.7509C34.8301 25.1018 32.0965 24.7411 29.4593 24.669C29.4271 35.8132 33.3508 48.6165 40.7799 60.5903C35.3769 61.0231 30.392 62.2854 26.0502 64.3051C31.4211 78.0461 44.4462 91.3182 61.8774 99.1444C79.3085 106.935 96.9648 107.403 109.411 101.633C108.06 98.1706 106.195 94.7083 103.912 91.3903C102.143 75.3411 95.0673 56.6952 83.2322 39.492Z" fill="#FAC6D1"/>
<path d="M278.545 60.2656C285.974 48.2918 289.897 35.4885 289.865 24.3443C287.228 24.4164 284.494 24.777 281.696 25.4262C284.237 16.3377 285.363 7.68197 284.977 0C269.122 3.78689 250.726 17.8525 236.092 39.1672C224.257 56.4066 217.214 75.0164 215.413 91.0295C213.13 94.3836 211.264 97.8098 209.914 101.272C222.36 107.007 240.016 106.574 257.447 98.7836C274.878 90.9934 287.904 77.6852 293.274 63.9443C288.933 61.9607 283.948 60.6984 278.545 60.2656Z" fill="#FAC6D1"/>
<path d="M149.612 38.7704C149.612 38.7704 149.387 35.7408 145.978 35.6687C142.569 35.5965 144.113 38.8425 144.724 41.1868C145.335 43.531 149.805 53.99 149.58 55.3245C149.58 55.3245 151.252 53.7376 151.059 52.5835C151.059 52.5835 148.969 42.2687 149.612 38.7704Z" fill="#EF4C72"/>
<path d="M173.379 35.3444C169.97 35.4166 169.745 38.4461 169.745 38.4461C170.356 41.9445 168.265 52.2592 168.265 52.2592C168.072 53.4133 169.745 55.0002 169.745 55.0002C169.52 53.6658 173.99 43.1707 174.601 40.8625C175.244 38.5183 176.756 35.2723 173.379 35.3444Z" fill="#EF4C72"/>
<path d="M109.829 103.76C108.125 103.76 106.484 104.193 105.069 104.987C109.475 100.803 112.273 94.7801 112.273 88.0719C112.273 75.3768 102.304 65.0981 90.0181 65.0981C86.7698 65.0981 83.6824 65.8195 80.8844 67.1178C80.8844 67.1178 36.3739 80.2457 25.6322 125.4C25.6322 125.4 38.1427 122.118 53.3869 124.39C68.6312 126.662 77.2824 138.492 96.4181 136.977C115.554 135.462 119.735 115.446 119.735 115.446L119.638 115.374C119.703 114.941 119.735 114.472 119.735 114.003C119.799 108.341 115.329 103.76 109.829 103.76Z" fill="#EF4C72"/>
<path d="M238.44 66.8297C235.642 65.5314 232.555 64.8101 229.307 64.8101C217.021 64.8101 207.051 75.0887 207.051 87.7838C207.051 94.456 209.817 100.479 214.255 104.699C212.84 103.905 211.232 103.472 209.495 103.472C203.996 103.472 199.558 108.053 199.558 113.751C199.558 114.22 199.59 114.689 199.654 115.122L199.558 115.194C199.558 115.194 203.771 135.246 222.874 136.725C242.01 138.24 250.629 126.374 265.906 124.138C281.182 121.902 293.66 125.148 293.66 125.148C282.951 79.9576 238.44 66.8297 238.44 66.8297Z" fill="#EF4C72"/>
</svg>